<?xml version="1.0" encoding="utf-8"?>
<!-- Generator: Adobe Illustrator 23.0.2, SVG Export Plug-In . SVG Version: 6.00 Build 0)  -->
<svg version="1.1" id="Camada_1" xmlns="http://www.w3.org/2000/svg" xmlns:xlink="http://www.w3.org/1999/xlink" x="0px" y="0px"
	 viewBox="0 0 512 148" style="enable-background:new 0 0 512 148;" xml:space="preserve">
<style type="text/css">
	.st0{fill:#86B36A;}
	.st1{fill:#FFFFFF;}
	.st2{fill:#A6A6A4;}
</style>
<g>
	<path class="st0" d="M181.5,40.1v1.4h9.8v-9.8h-9.8V40.1c1-0.3,2-0.3,3.1-0.7C183.6,39.7,182.5,40.1,181.5,40.1L181.5,40.1z
		 M5.8,147.6c0.7-1,1.4-2,1.7-3.1H3.7L5.8,147.6L5.8,147.6z M1,140.8l1.4,2h5.8c0.3-0.3,0.3-0.7,0.7-1V133H7.4
		C5.4,135.4,3.4,138.1,1,140.8L1,140.8z M10.5,139.5c1.4-2.4,3.1-4.4,4.4-6.4h-4.4V139.5L10.5,139.5z M10.5,130v1.7h5.4
		c1.4-2,3.1-3.7,4.4-5.4v-4.4h-1.7C16.3,124.2,13.6,126.9,10.5,130L10.5,130z M22,124.6c1-1,1.7-1.7,2.7-2.7H22V124.6L22,124.6z
		 M22,120.5h4.4c2-1.7,3.7-2.7,5.4-4.1v-3.7c-3.1,1.4-6.1,3.4-9.8,6.4L22,120.5L22,120.5z M33.2,112v3.7c2.4-1.4,4.4-2,6.4-2.7
		c0.7,2.7,2,5.1,3.4,7.1v-9.5h-5.4C36.3,111,34.9,111.3,33.2,112L33.2,112z M37.6,103.9c1.7,0.3,3.4,0.3,5.4,0.7v-5.1h-5.4
		C37.6,100.8,37.6,102.2,37.6,103.9L37.6,103.9z M37.6,97.8h5.4v-9.8H38C37.6,91.3,37.6,94.4,37.6,97.8L37.6,97.8z M38,86.6h5.1
		v-9.8H39C38.7,79.8,38.3,83.2,38,86.6L38,86.6z M44.8,120.5h9.8v-9.8h-9.8V120.5L44.8,120.5z M44.8,104.5c3.4,0,6.4-0.3,9.8-0.7
		v-4.4h-9.8V104.5L44.8,104.5z M44.8,97.8h9.8v-9.8h-9.8V97.8L44.8,97.8z M44.8,86.6h9.8v-9.8h-9.8V86.6L44.8,86.6z M65.8,137.1V133
		H57C60,134.7,62.8,135.8,65.8,137.1L65.8,137.1z M56.3,131.7h9.5v-9.8H56v9.8H56.3z M56.3,120.5h9.5v-9.8H56v9.8H56.3z M56.3,103.5
		c3.4-0.7,6.4-1.4,9.8-2.7v-1.7h-9.8V103.5L56.3,103.5z M65.8,109.3v-1c-1.7,0.3-3.1,0.7-4.8,1H65.8L65.8,109.3z M56.3,97.8h9.5
		v-9.8H56v9.8H56.3z M56.3,86.6h9.5v-9.8H56v9.8H56.3z M67.5,131.7h9.8v-9.8h-9.8V131.7L67.5,131.7z M67.5,120.5h9.8v-9.8h-9.8
		V120.5L67.5,120.5z M67.5,107.6v1.7h9.8v-5.1c-2.4,1-4.4,2-6.8,2.7C69.5,107.3,68.5,107.6,67.5,107.6L67.5,107.6z M67.5,99.4v1
		c1-0.3,1.7-0.7,2.7-1H67.5L67.5,99.4z M67.5,97.8h6.1c1.4-0.7,2.4-1,3.7-1.7v-8.1h-9.8L67.5,97.8L67.5,97.8z M67.5,86.6h9.8v-9.8
		h-9.8V86.6L67.5,86.6z M79,140.2c3.1,0.7,6.4,1,9.8,1V133H79V140.2L79,140.2z M79,131.7h9.8v-9.8H79V131.7L79,131.7z M79,120.5h9.8
		v-9.8H79V120.5L79,120.5z M79,103.2v6.1h9.8v-9.8h-2.4C83.8,100.8,81.4,102.2,79,103.2L79,103.2z M79,95.4c3.4-1.7,6.4-3.4,9.8-5.4
		v-2H79V95.4L79,95.4z M79,86.6h9.8v-9.8H79V86.6L79,86.6z M90.2,131.7h9.8v-9.8h-9.8L90.2,131.7L90.2,131.7z M90.2,109.3h9.8v-9.8
		h-9.8L90.2,109.3L90.2,109.3z M90.2,97.8h9.8v-7.5c-3.4,2.4-6.4,4.8-9.8,6.8L90.2,97.8L90.2,97.8z M90.2,88.3v0.7
		c0.7-0.3,1-0.7,1.7-1h-1.7V88.3z M90.2,86.6h4.1c2-1.4,3.7-2.4,5.8-3.7v-6.1h-9.8L90.2,86.6L90.2,86.6z M101.8,141.5
		c3.4,0,6.4-0.3,9.8-0.7V133h-9.8V141.5L101.8,141.5z M101.8,131.7h9.8v-9.8h-9.8V131.7L101.8,131.7z M101.8,120.5h9.8v-9.8h-9.8
		V120.5L101.8,120.5z M101.8,109.3h9.8v-9.8h-9.8V109.3L101.8,109.3z M101.8,88.3v1v8.8h9.8v-9.8h-8.5H101.8L101.8,88.3z
		 M111.6,86.6v-4.8c-2,1.7-4.1,3.1-6.4,4.8H111.6L111.6,86.6z M101.8,76.7h7.5c-2.4,1.7-5.1,3.4-7.5,5.1V76.7L101.8,76.7z
		 M113.3,120.5h9.8v-9.8h-9.8V120.5L113.3,120.5z M113.3,109.3h9.8v-9.8h-9.8V109.3L113.3,109.3z M113.3,80.4v6.1h9.8v-9.8h-5.1
		C116.4,78.1,114.7,79.1,113.3,80.4L113.3,80.4z M39.3,75.4h3.7v-9.8h-1.4C40.7,68.6,40,71.6,39.3,75.4L39.3,75.4z M44.8,75.4h9.8
		v-9.8h-9.8V75.4L44.8,75.4z M44.8,57.7v6.4h9.8v-9.8h-8.1C45.8,55.3,45.5,56.4,44.8,57.7L44.8,57.7z M47.5,52.6h7.1v-8.8
		C51.9,46.2,49.5,49.2,47.5,52.6L47.5,52.6z M56.3,75.4h9.5v-9.8H56v9.8H56.3z M56.3,64.2h9.5v-9.8H56v9.8H56.3z M56.3,52.6h9.5
		v-9.8H56v9.8H56.3z M65.8,41.4V36c-3.1,1.4-6.1,3.4-8.8,5.4H65.8L65.8,41.4z M67.5,75.4h9.8v-9.8h-9.8V75.4L67.5,75.4z M67.5,64.2
		h9.8v-9.8h-9.8V64.2L67.5,64.2z M67.5,52.6h9.8v-9.8h-9.8V52.6L67.5,52.6z M67.5,41.4h9.8v-9.5c-3.4,1-6.8,2-9.8,3.4V41.4
		L67.5,41.4z M79,75.4h9.8v-9.8H79V75.4L79,75.4z M79,64.2h9.8v-9.8H79V64.2L79,64.2z M79,52.6h9.8v-9.8H79V52.6L79,52.6z M79,41.4
		h9.8v-9.8H79V41.4L79,41.4z M90.2,75.4h9.8v-9.8h-9.8L90.2,75.4L90.2,75.4z M90.2,64.2h9.8v-9.8h-9.8L90.2,64.2L90.2,64.2z
		 M90.2,52.6h9.8v-9.8h-9.8L90.2,52.6L90.2,52.6z M90.2,41.4h9.8v-9.8h-9.8L90.2,41.4L90.2,41.4z M90.2,30.2h9.8v-1.7
		c-3.4,0.3-6.4,0.7-9.8,1L90.2,30.2L90.2,30.2z M101.8,75.4h9.5h0.3l0,0v-9.8h-9.8V75.4L101.8,75.4z M101.8,64.2h9.8v-9.8h-9.8V64.2
		L101.8,64.2z M101.8,52.6h9.8v-9.8h-9.8V52.6L101.8,52.6z M101.8,41.4h9.8v-9.8h-9.8V41.4L101.8,41.4z M101.8,30.2h9.8v-2.4
		c-3.4,0-6.4,0.3-9.8,0.3V30.2L101.8,30.2z M113.3,74c3.4-2.4,6.4-4.4,9.8-6.8v-2h-9.8V74L113.3,74z M123.2,75.4h-3.1
		c1-0.7,2-1.7,3.1-2.4V75.4L123.2,75.4z M113.3,64.2h9.8v-9.8h-9.8V64.2L113.3,64.2z M113.3,52.6h9.8v-9.8h-9.8V52.6L113.3,52.6z
		 M113.3,41.4h9.8v-9.8h-9.8V41.4L113.3,41.4z M113.3,30.2h9.8v-2.7c-3.4,0-6.4,0.3-9.8,0.3V30.2L113.3,30.2z M124.2,65.5v1
		c0.7-0.3,1-0.7,1.7-1H124.2L124.2,65.5z M124.2,72c2.7-2,5.4-4.4,8.1-6.4h1.7v9.8h-9.8V72L124.2,72z M124.2,64.2h3.7
		c2-1.4,4.1-2.7,6.1-3.7v-6.1h-9.8V64.2L124.2,64.2z M124.2,52.6h9.8v-9.8h-9.8V52.6L124.2,52.6z M124.2,41.4h9.8v-9.8h-9.8V41.4
		L124.2,41.4z M124.2,30.2h9.8v-2.7c-3.4,0-6.4,0.3-9.8,0.3V30.2L124.2,30.2z M135.7,75.4h9.8v-9.8h-9.8V75.4L135.7,75.4z M135.7,54
		v5.1c2.7-1.7,5.4-3.4,8.1-4.8L135.7,54L135.7,54z M135.7,64.2v-1c3.1-2.4,6.4-4.8,9.8-6.8v7.8H135.7L135.7,64.2z M135.7,52.6h9.8
		v-9.8h-9.8V52.6L135.7,52.6z M135.7,41.4h9.8v-9.8h-9.8V41.4L135.7,41.4z M135.7,30.2h9.8v-3.4c-3.4,0.3-6.4,0.3-9.8,0.3V30.2
		L135.7,30.2z M147.2,75.4h9.8v-9.8h-9.8V75.4L147.2,75.4z M147.2,55.3v8.8h9.8v-9.8h-8.5C148.3,54.3,147.6,55,147.2,55.3
		L147.2,55.3z M157.1,52.6v-3.4c-2,1-4.1,2.4-6.1,3.4H157.1L157.1,52.6z M147.2,52.6v-9.5h9.8v4.8C153.7,49.2,150.3,50.6,147.2,52.6
		L147.2,52.6z M147.2,41.4h9.8v-9.8h-9.8V41.4L147.2,41.4z M147.2,30.2h9.8v-4.4c-3.4,0.3-6.4,0.7-9.8,0.7V30.2L147.2,30.2z
		 M168.3,65.5h-9.8v9.8h9.8V65.5L168.3,65.5z M168.3,54h-9.8v9.8h9.8V54L168.3,54z M168.3,42.8h-9.8v4.1
		C161.8,45.5,164.9,44.1,168.3,42.8L168.3,42.8L168.3,42.8z M168.3,43.8v8.8h-9.8v-4.4C161.8,46.5,164.9,45.2,168.3,43.8L168.3,43.8
		z M168.3,31.6h-9.8v9.8h9.8V31.6L168.3,31.6z M168.3,24.5c-3.4,0.7-6.4,1-9.8,1.4v4.4h9.8V24.5L168.3,24.5z M170,75.4h9.8v-9.8H170
		V75.4L170,75.4z M170,64.2h9.8v-9.8H170V64.2L170,64.2z M170,43.1v9.5h9.8v-9.8H171C170.7,43.1,170.3,43.1,170,43.1L170,43.1z
		 M179.8,41.4v-1c-1.4,0.3-2.7,0.7-4.1,1H179.8L179.8,41.4z M170,41.4v-9.8h9.8v8.8c-1.7,0.3-3.4,0.7-5.1,1L170,41.4L170,41.4z
		 M170,30.2h9.8v-8.1c-3.4,0.7-6.4,1.4-9.8,2V30.2L170,30.2z M181.5,64.2h9.8v-9.8h-9.8V64.2L181.5,64.2z M181.5,21.7v8.5h9.8v-9.8
		h-5.1C184.6,20.7,182.9,21.1,181.5,21.7L181.5,21.7z M192.7,52.6h9.8v-9.8h-9.8V52.6L192.7,52.6z M192.7,41.4h9.8v-9.8h-9.8V41.4
		L192.7,41.4z M192.7,30.2h9.8v-9.8h-9.8V30.2L192.7,30.2z M192.7,19h9.8v-4.8c-3.4,1.7-6.4,3.1-9.8,4.1V19L192.7,19z M204.3,41.4
		h7.8c0.7-2,1.4-4.1,2-6.1v-3.7h-9.8V41.4L204.3,41.4z M204.3,13.3V19h9.8V9.2h-2.4C209.3,10.5,206.6,11.9,204.3,13.3L204.3,13.3z
		 M214.1,7.5L214.1,7.5L214.1,7.5L214.1,7.5L214.1,7.5z M215.5,29.9c1-3.4,1.7-6.4,2.7-9.5h-2.7V29.9L215.5,29.9z M215.5,19h3.1
		c1-3.7,1.7-6.8,2.7-9.8h-5.4V19H215.5z M215.5,6.5v1h6.1c0.7-2.7,1.4-5.4,2-7.1C221.2,2.4,218.5,4.4,215.5,6.5L215.5,6.5z
		 M124.2,132h9.8v-9.8h-9.8V132L124.2,132z M124.2,109.3h9.8v-9.8h-9.8V109.3L124.2,109.3z M124.2,98.1h9.8v-9.8h-9.8V98.1
		L124.2,98.1z M124.2,86.9h9.8v-9.8h-9.8V86.9L124.2,86.9z M135.7,98.1h9.8v-9.8h-9.8V98.1L135.7,98.1z M147.2,109.3h9.8v-9.8h-9.8
		V109.3L147.2,109.3z M147.2,86.9h9.8v-9.8h-9.8V86.9L147.2,86.9z M158.4,86.9h9.8v-9.8h-9.8V86.9L158.4,86.9z M170,98.1h9.8v-9.8
		H170V98.1z"/>
	<path class="st1" d="M223.9,98.8h4.8v-17H246c8.8,0,14.6-4.4,14.6-11.5c0-7.1-5.8-11.2-14.9-11.2h-22.1L223.9,98.8L223.9,98.8z
		 M455.4,97.8h12.2V67.6l0,0l10.5,30.2h9.8l10.2-30.2l0,0v30.2h12.2l0-40h-19l-8.5,26.5l0,0L474,57.7h-19L455.4,97.8L455.4,97.8z
		 M427.2,69.2L427.2,69.2l5.8,13.9h-11.2L427.2,69.2L427.2,69.2z M402.4,98.1h13.2l3.1-7.1H436l3.1,7.1h13.6l-19-39.7h-13.2
		L402.4,98.1L402.4,98.1z M228.3,62.5h16.3c6.4,0,11.2,2.7,11.2,8.1s-4.4,8.1-10.9,8.1h-16.3L228.3,62.5L228.3,62.5z M266.3,98.8
		h4.8V81.1h18c8.8,0,9.5,5.8,9.8,11.5c0,1.7,0,4.8,1.4,6.1h5.4c-2-2-2-7.5-2.4-10.2c-0.3-4.8-2.4-8.5-8.8-8.8l0,0
		c6.4-1,9.5-5.1,9.5-10.2c0-7.1-6.8-10.5-15.3-10.2H266L266.3,98.8L266.3,98.8z M271.1,62.1h17.6c7.1,0,10.9,3.1,10.9,7.8
		s-5.1,7.8-10.9,7.8h-17.6V62.1L271.1,62.1z M308.8,78.8c0,10.9,7.8,20.7,23.8,20.7c15.6,0,23.4-9.8,23.4-21s-7.8-20.7-23.4-20.7
		C316.6,58.1,308.8,67.9,308.8,78.8L308.8,78.8L308.8,78.8z M313.5,78.4c0-8.8,5.4-17.6,18.7-17.6s18.7,8.8,18.7,17.3
		c0,8.8-5.4,17.6-18.7,17.6C319.3,96.1,313.5,87.2,313.5,78.4L313.5,78.4L313.5,78.4z M366.1,61.8h10.2c14.3,0,20.4,4.8,20.7,16.6
		c0,11.9-6.1,16.6-20.4,16.6h-10.2L366.1,61.8L366.1,61.8z M361.7,98.1H379c14.9,0,22.7-7.1,22.7-20s-7.8-19.7-23.1-19.7h-17.3
		L361.7,98.1z"/>
	<path class="st2" d="M223.9,111.3h13.9v1.4h-6.1v10.9H230v-10.9h-6.1L223.9,111.3L223.9,111.3z M238.5,123.5v-12.2h11.9v1.4h-10.2
		v3.7h9.8v1.4h-9.8v4.1h10.2v1.4L238.5,123.5L238.5,123.5z M264,119.1h1.7c0,1,0,2-0.3,2.4c-0.3,1-0.7,1.4-1.7,1.7
		c-0.7,0-2.4,0.3-4.4,0.3c-2.7,0-4.4,0-5.4-0.3c-1-0.3-1.4-0.7-1.7-1.4c-0.3-0.7-0.3-2-0.3-4.1c0-2,0-3.4,0.3-4.1c0.3-1,1-1.7,2-1.7
		c1-0.3,2.7-0.3,5.1-0.3c2,0,3.7,0,4.4,0.3c0.3,0,0.7,0.3,1,0.7c0.3,0.3,0.7,0.7,0.7,1c0,0.3,0,1,0,2H264c0-0.3,0-0.3,0-0.3
		c0-0.7,0-1-0.3-1.4c0-0.3-0.3-0.3-0.7-0.7c-0.7-0.3-2-0.3-4.1-0.3c-1.7,0-2.7,0-3.7,0c-0.7,0-1.4,0.3-1.7,0.3
		c-0.3,0.3-0.3,0.7-0.7,1c0,0.7,0,1.4,0,2.4c0,0.3,0,1,0,2c0,0.7,0,1.4,0,1.7s0.3,0.7,0.3,1c0.3,0.3,0.7,0.3,1,0.3c1,0,2.4,0,4.1,0
		c0.7,0,1.4,0,2,0c1,0,1.4,0,1.7,0s0.7,0,1-0.3c0.3,0,0.3-0.3,0.3-0.7C264,120.8,264,120.1,264,119.1L264,119.1z M267,111.3h2.7
		l10.5,10.5h0.3v-10.5h1.7v12.2h-2.7L269.1,113h-0.3v10.5H267V111.3L267,111.3z M291.8,111.3c2,0,3.4,0,4.4,0.3c1,0,1.4,0.3,2,0.7
		c0.3,0.3,0.3,0.7,0.7,1c0,0.3,0.3,0.7,0.3,1.4c0,0.7,0,1.7,0,3.1s0,2.7-0.3,3.4c0,0.7-0.3,1.4-0.7,1.7s-1,0.7-1.7,0.7
		c-0.7,0-2,0.3-4.1,0.3c-1,0-2,0-3.1,0s-1.7,0-2,0c-0.7,0-1,0-1.4-0.3c-0.3,0-0.7-0.3-1-0.7c-0.3-0.3-0.7-1-0.7-1.7
		c0-0.7-0.3-1.7-0.3-3.4c0-2,0-3.4,0.3-4.1c0.3-1,1-1.7,2.4-1.7C287.7,111.3,289.4,111.3,291.8,111.3L291.8,111.3z M291.1,112.7
		c-1.7,0-3.1,0-3.7,0.3c-0.3,0-0.7,0.3-1,0.3c-0.3,0.3-0.3,0.3-0.3,1c0,0.7-0.3,1.7-0.3,3.1c0,1.4,0,2.4,0,3.1c0,0.7,0.3,1,0.3,1.4
		c0,0.3,0.3,0.3,0.7,0.3s0.7,0,1.4,0.3c1,0,2.4,0,3.7,0c2,0,3.4,0,4.4-0.3c0.7,0,1-0.7,1.4-1.4c0-0.7,0.3-1.7,0.3-3.1
		c0-1.7,0-2.7-0.3-3.4c0-0.7-0.7-1-1.4-1c-0.3,0-1,0-1.7,0C293.8,112.7,292.8,112.7,291.1,112.7L291.1,112.7z M301,111.3h1.7v10.9
		h9.5v1.4H301V111.3L301,111.3z M320.6,111.3c2,0,3.4,0,4.4,0.3c1,0,1.4,0.3,2,0.7c0.3,0.3,0.3,0.7,0.7,1c0,0.3,0.3,0.7,0.3,1.4
		c0,0.7,0,1.7,0,3.1s0,2.7-0.3,3.4c0,0.7-0.3,1.4-0.7,1.7c-0.3,0.3-1,0.7-1.7,0.7c-0.7,0-2,0.3-4.1,0.3c-1,0-2,0-3.1,0
		c-1,0-1.7,0-2,0c-0.7,0-1,0-1.4-0.3c-0.3,0-0.7-0.3-1-0.7c-0.3-0.3-0.7-1-0.7-1.7c0-0.7-0.3-1.7-0.3-3.4c0-2,0-3.4,0.3-4.1
		c0.3-1,1-1.7,2-1.7C316.6,111.3,318.3,111.3,320.6,111.3L320.6,111.3z M320,112.7c-1.7,0-3.1,0-3.7,0.3c-0.3,0-0.7,0.3-1,0.3
		c-0.3,0.3-0.3,0.3-0.3,1c0,0.7-0.3,1.7-0.3,3.1c0,1.4,0,2.4,0,3.1c0,0.7,0.3,1,0.3,1.4c0,0.3,0.3,0.3,0.7,0.3c0.3,0,0.7,0,1.4,0.3
		c1,0,2.4,0,3.7,0c2,0,3.4,0,4.4-0.3c0.7,0,1-0.7,1.4-1.4c0-0.7,0.3-1.7,0.3-3.1c0-1.7,0-2.7-0.3-3.4c0-0.7-0.7-1-1.4-1
		c-0.3,0-1,0-1.7,0C322.7,113.4,321.7,112.7,320,112.7L320,112.7z M336.2,117.4h8.1c0,2,0,3.1-0.3,3.7c0,0.7-0.3,1-0.7,1.4
		c-0.3,0.3-0.7,0.7-1.4,0.7c-0.7,0.3-2.4,0.3-5.1,0.3c-2.4,0-4.1,0-5.1-0.3c-1,0-1.7-0.7-2-1c-0.3-0.7-0.7-2.4-0.7-4.8
		c0-1.7,0-3.1,0.3-4.1c0.3-1,0.7-1.4,1.7-1.7c1-0.3,2.7-0.3,5.1-0.3c0.7,0,1.7,0,2.7,0s1.7,0,2,0c0.7,0,1.4,0.3,2,1
		c0.3,0.3,0.3,0.7,0.7,1c0,0.3,0.3,1,0.3,1.7h-1.7c0-1,0-1.7-0.3-1.7c0,0-0.3-0.3-0.7-0.3c-0.3,0-0.7,0-1.4-0.3c-1,0-2,0-3.4,0
		c-1.7,0-3.1,0-3.7,0s-1.4,0.3-1.4,0.3c-0.3,0.3-0.3,0.7-0.3,1c0,0.7,0,1.4,0,2.7c0,1.7,0,3.1,0.3,3.7c0,0.3,0.3,0.7,0.3,0.7
		c0.3,0,0.3,0.3,1,0.3c0.7,0,2.4,0.3,5.1,0.3c1.4,0,2.7,0,3.4-0.3c0.7,0,1-0.3,1.4-0.7c0.3-0.3,0.3-1,0.3-2.4h-6.4L336.2,117.4
		L336.2,117.4L336.2,117.4z M345.8,111.3h1.7v12.2h-1.7V111.3L345.8,111.3z M362.7,123.5l-1.4-2.7h-9.8l-1.4,2.7h-1.7l6.8-12.2h2.7
		l6.8,12.2H362.7L362.7,123.5z M360.7,119.5l-3.7-6.8h-0.7l-3.7,6.8H360.7L360.7,119.5z M369.8,123.5v-12.2h11.9v1.4h-10.2v3.7h9.8
		v1.4h-9.8v4.1h10.2v1.4L369.8,123.5L369.8,123.5z M383.1,111.3h3.4l6.4,10.2l6.4-10.2h3.4v12.2h-1.7v-10.9h-0.7l-6.8,10.5h-1.4
		l-6.8-10.5h-0.7v10.5h-1.7V111.3L383.1,111.3z M408.5,119.8h1.7v0.3c0,0.7,0,1,0,1.4s0.3,0.3,0.7,0.7c0.3,0.3,2,0.3,4.4,0.3
		c1.7,0,3.1,0,4.1-0.3c0.7-0.3,1-0.7,1-1.7c0-0.7,0-1-0.3-1c0-0.3-0.3-0.3-0.7-0.7c-0.3,0-0.7-0.3-1.4-0.3c-0.7,0-2.4,0-5.4,0
		c-1,0-1.7,0-2.4-0.3c-0.7-0.3-1-0.3-1.4-1c-0.3-0.3-0.7-1.4-0.7-2.4c0-1,0.3-2,1-2.4c0.3-0.3,0.7-0.3,1-0.7c0.3,0,1-0.3,1.4-0.3
		c1,0,2.4-0.3,3.7-0.3c1.4,0,2.4,0,3.1,0.3c0.7,0,1.4,0.3,1.7,0.7s0.7,0.7,0.7,1c0,0.3,0.3,1,0.3,1.7h-1.7c0,0,0,0,0-0.3
		c0-0.7,0-1-0.3-1.4c-0.3-0.3-0.7-0.7-1.4-0.7c-0.7,0-1.7-0.3-2.7-0.3c-1.7,0-2.7,0-3.4,0.3c-0.7,0-1.4,0.3-1.7,0.7
		c-0.3,0.3-0.3,0.7-0.3,1.4c0,0.7,0,1,0.3,1c0.3,0,0.3,0.3,0.7,0.7c0.7,0.3,1.7,0.3,3.1,0.3c0.7,0,1.7,0,4.1,0c1,0,1.7,0,2,0.3
		c0.3,0,1,0.3,1,0.7c0.3,0.3,0.7,1.4,0.7,2c0,1,0,1.7-0.3,2c-0.3,0.7-1,1-2,1.4s-2.7,0.3-5.4,0.3c-1.4,0-2.4,0-3.1,0
		c-0.7,0-1-0.3-1.4-0.3c-0.3-0.3-0.7-0.7-1-1c-0.3-0.3-0.3-1-0.3-1.7C408.5,120.1,408.5,120.1,408.5,119.8L408.5,119.8z
		 M423.5,111.3h1.7v6.1c0,1.7,0,2.7,0,3.1s0.3,0.7,0.3,1c0.3,0.3,0.7,0.3,1,0.3c0.7,0,2,0,3.7,0c2,0,3.7,0,4.4-0.3
		c0.3,0,0.7-0.3,1-0.3c0.3-0.3,0.3-0.7,0.3-1c0-0.3,0-1.4,0-3.1V111h1.7v6.1c0,1.7,0,2.7,0,3.4c0,1-0.3,1.7-1,2.4
		c-0.3,0.3-1,0.3-1.4,0.3c-0.7,0-2,0-4.4,0.3c-2,0-3.4,0-3.7,0c-0.3,0-0.7,0-1.4-0.3c-0.7-0.3-1.4-0.7-1.7-1.4
		c-0.3-0.3-0.3-0.7-0.3-1.4c0-0.3,0-1.7,0-3.4L423.5,111.3L423.5,111.3z M453,123.5l-1.4-2.7h-9.8l-1.4,2.7h-1.7l6.8-12.2h2.7
		l6.8,12.2H453L453,123.5z M450.6,119.5l-3.7-6.8h-0.7l-3.7,6.8H450.6L450.6,119.5z M458.7,111.3h1.7l6.1,10.9h0.7l5.8-10.9h1.7
		l-6.8,12.2h-2.4L458.7,111.3L458.7,111.3z M475.7,111.3h1.7v12.2h-1.7V111.3L475.7,111.3z M479.1,123.5v-12.2h8.5
		c1.7,0,3.1,0,4.1,0.3c1,0.3,1.7,0.7,2,1.4c0.3,0.3,0.3,1,0.7,1.7c0,0.7,0,1.7,0,2.7c0,1.4,0,2.7-0.3,3.4c-0.3,1.4-1.4,2-2.7,2.4
		c-0.7,0-1.7,0.3-3.4,0.3H479.1L479.1,123.5z M480.8,122.2h6.8c1,0,2,0,2,0c0.3,0,0.7,0,1,0c0.7,0,1-0.7,1.4-1.4
		c0.3-0.7,0.3-1.7,0.3-3.4c0-2-0.3-3.1-0.7-3.7c-0.3-0.3-0.3-0.3-0.7-0.7c-0.3-0.3-0.7-0.3-1.4-0.3c-0.3,0-1,0-2.4,0h-6.8
		L480.8,122.2L480.8,122.2z M509,123.5l-1.4-2.7h-9.8l-1.4,2.7h-1.7l6.8-12.2h2.7l6.8,12.2H509L509,123.5z M506.6,119.5l-3.7-6.8
		h-0.7l-3.7,6.8H506.6z"/>
</g>
</svg>
